<?xml version="1.0" encoding="UTF-8"?>
<svg xmlns="http://www.w3.org/2000/svg" id="Layer_1" data-name="Layer 1" viewBox="0 0 24 24">
  <path d="m23.461,5.788c.949-1.476.738-3.447-.503-4.688-1.241-1.241-3.211-1.451-4.687-.505l-1.486.948c-1.458-.67-3.078-1.044-4.785-1.044C5.659.5.5,5.659.5,12c0,1.706.374,3.326,1.044,4.784l-.947,1.428c-.949,1.476-.737,3.447.504,4.688.721.721,1.688,1.094,2.662,1.094.704,0,1.411-.194,2.032-.594l1.422-.943c1.457.669,3.078,1.043,4.784,1.043,6.341,0,11.5-5.159,11.5-11.5,0-1.705-.374-3.325-1.042-4.782l1.003-1.43Zm-4.65-4.35c1.082-.698,2.529-.542,3.44.369.911.91,1.066,2.356.381,3.423l-.694.988c-.998-1.709-2.424-3.138-4.13-4.141l1.003-.64ZM5.248,22.562c-1.084.696-2.529.541-3.44-.369s-1.066-2.356-.374-3.434l.638-.962c1,1.706,2.426,3.132,4.131,4.132l-.955.633Zm6.752-.062c-5.79,0-10.5-4.71-10.5-10.5S6.21,1.5,12,1.5s10.5,4.71,10.5,10.5-4.71,10.5-10.5,10.5Zm3-4.5c0,.552-.448,1-1,1s-1-.448-1-1,.448-1,1-1,1,.448,1,1Zm-10-7c0-.552.448-1,1-1s1,.448,1,1-.448,1-1,1-1-.448-1-1Zm8,1c0,.552-.448,1-1,1s-1-.448-1-1,.448-1,1-1,1,.448,1,1Zm3-5c0-.552.448-1,1-1s1,.448,1,1-.448,1-1,1-1-.448-1-1Zm-7.518,7h-2.259c-.372,0-.72.166-.955.455-.227.28-.316.639-.243.986.372,1.774,1.759,3.161,3.533,3.533.08.017.161.025.241.025.267,0,.53-.093.745-.267.29-.235.457-.584.457-.956v-2.26c0-.837-.681-1.518-1.518-1.518Zm.518,3.777c0,.068-.032.135-.086.179-.032.026-.084.056-.15.04-1.387-.291-2.47-1.374-2.76-2.76-.014-.066.015-.118.041-.15.044-.054.111-.086.179-.086h2.259c.286,0,.518.232.518.518v2.26Zm9.408-7.251c-.369-.043-.728.087-.988.347l-1.566,1.566c-.585.585-.585,1.536,0,2.121l1.566,1.566c.229.229.535.354.856.354.562,0,.813-.241,1.007-.543.958-1.481.958-3.396,0-4.877-.194-.302-.514-.497-.875-.535Zm.035,4.869c-.042.064-.106.08-.142.084-.032.006-.11.005-.175-.06l-1.566-1.566c-.195-.195-.195-.512,0-.707l1.566-1.566c.052-.052.113-.061.151-.061.009,0,.017,0,.023,0,.035.004.1.02.142.084.744,1.151.744,2.64,0,3.791Zm-9.986-6.662c.215.174.478.267.745.267.08,0,.161-.009.24-.025,1.775-.372,3.162-1.759,3.534-3.533.073-.348-.016-.706-.243-.986-.235-.289-.583-.455-.955-.455h-2.259c-.837,0-1.518.681-1.518,1.518v2.26c0,.372.167.721.457.956Zm.543-3.216c0-.285.232-.518.518-.518h2.259c.068,0,.135.032.179.086.026.032.054.084.041.15-.291,1.386-1.374,2.469-2.761,2.76-.064.015-.117-.014-.149-.04-.054-.044-.086-.11-.086-.179v-2.26Z"/>
</svg>
