<?xml version="1.0" encoding="UTF-8"?>
<svg xmlns="http://www.w3.org/2000/svg" id="Layer_1" data-name="Layer 1" viewBox="0 0 24 24">
  <path d="M22.951,1.479c-.022-.239-.212-.428-.451-.451-.103-.011-10.738-.925-21.235,6.21-.121,.083-.2,.213-.216,.359-.031,.283-.708,6.986,3.832,11.535,3.44,3.448,8.117,3.893,10.303,3.893,.697,0,1.142-.045,1.21-.053,.146-.016,.277-.095,.359-.217C23.875,12.236,22.961,1.585,22.951,1.479Zm-.972,.52c.026,.655,.042,2.031-.148,3.895-1.442-.812-3.271-.587-4.484,.63-1.464,1.467-1.465,3.854,0,5.321,.715,.716,1.675,1.103,2.657,1.103,.125,0,.251-.007,.377-.019-.465,1.486-1.06,3.052-1.822,4.656-.819,.059-5.764,.256-9.076-3.061-3.312-3.32-3.114-8.277-3.055-9.097C13.748,1.935,20.285,1.932,21.979,1.999Zm-1.281,9.859c-.946,.246-1.95-.026-2.643-.72-1.075-1.078-1.075-2.831,0-3.909,.993-.995,2.545-1.086,3.645-.224-.193,1.427-.504,3.071-1.001,4.853Zm-4.639,10.137c-1.176,.072-6.721,.188-10.471-3.569C1.837,14.668,1.954,9.112,2.025,7.932c1.129-.756,2.259-1.418,3.376-1.996-.041,1.729,.203,6.115,3.375,9.293,2.992,2.999,7.058,3.385,8.957,3.385,.114,0,.22-.001,.318-.004-.577,1.119-1.237,2.252-1.993,3.385Z"/>
  <path d="M11.646,11.261h0c.496,0,.963-.194,1.315-.546,.724-.726,.724-1.906,0-2.632-.352-.352-.818-.545-1.314-.545h0c-.497,0-.963,.194-1.314,.546-.724,.726-.724,1.906,0,2.632,.352,.352,.817,.545,1.314,.546Zm-.605-2.472c.161-.162,.377-.252,.605-.252h0c.229,0,.444,.09,.606,.252,.336,.336,.336,.883,0,1.219-.163,.163-.379,.252-.607,.252h0c-.229,0-.444-.09-.605-.252-.336-.336-.336-.883,0-1.22Z"/>
</svg>
